<?xml version="1.0" encoding="utf-8"?>
<!-- Generator: Adobe Illustrator 28.0.0, SVG Export Plug-In . SVG Version: 6.00 Build 0)  -->
<svg version="1.1" id="Layer_1" xmlns="http://www.w3.org/2000/svg" xmlns:xlink="http://www.w3.org/1999/xlink" x="0px" y="0px"
	 viewBox="0 0 512 512" style="enable-background:new 0 0 512 512;" xml:space="preserve">
<style type="text/css">
	.st0{enable-background:new    ;}
	.st1{fill:#FFFFFF;}
</style>
<g id="Layer_1_00000018203816492537123110000000876598839569255055_">
	<rect width="512" height="512"/>
</g>
<g id="Layer_2_00000075847854175583809580000010152915802135140760_">
	<g id="Layer_6">
		<g>
			<g class="st0">
				<path class="st1" d="M100.5,377.8L279.2,67.6L458,377.8H100.5z M306.4,290.3L279.2,243l-27.5,47.3H306.4z"/>
			</g>
			<g class="st0">
				<path class="st1" d="M154.2,357.2c-13.8,13.8-30.2,20.5-49.5,20.5H47.3V237.3h57.3c19.3,0,35.7,7,49.5,20.7s20.8,30.2,20.8,49.5
					C174.9,326.8,167.9,343.5,154.2,357.2z M131.3,307.7c0-6.8-2.5-12.9-7.4-18.5c-4.7-5.5-11.3-8.2-19.3-8.2H90.9v53.2h4.3
					c10.1,0.2,20.1,0.4,28.4-7.8C129.1,320.9,131.3,314.3,131.3,307.7z"/>
			</g>
			<g class="st0">
				<path class="st1" d="M382.6,337v-52.5c9.6,0,17.8-3.2,24.4-10.1c6.4-6.9,9.6-15,9.6-24.7v-144h52.5c0,16,0,32,0,48.1
					c0,16,0,79.9,0,95.9c0,23.9-8.4,44.4-25.1,61.6C427,328.4,406.8,337,382.6,337z"/>
			</g>
		</g>
	</g>
</g>
</svg>
